<svg id="mermaid-1619603690306" width="100%" xmlns="http://www.w3.org/2000/svg" height="465" style="max-width: 344.609375px;" viewBox="0 0 344.609375 465"><style>#mermaid-1619603690306{font-family:"trebuchet ms",verdana,arial,sans-serif;font-size:16px;fill:#333;}#mermaid-1619603690306 .error-icon{fill:#552222;}#mermaid-1619603690306 .error-text{fill:#552222;stroke:#552222;}#mermaid-1619603690306 .edge-thickness-normal{stroke-width:2px;}#mermaid-1619603690306 .edge-thickness-thick{stroke-width:3.5px;}#mermaid-1619603690306 .edge-pattern-solid{stroke-dasharray:0;}#mermaid-1619603690306 .edge-pattern-dashed{stroke-dasharray:3;}#mermaid-1619603690306 .edge-pattern-dotted{stroke-dasharray:2;}#mermaid-1619603690306 .marker{fill:#333333;stroke:#333333;}#mermaid-1619603690306 .marker.cross{stroke:#333333;}#mermaid-1619603690306 svg{font-family:"trebuchet ms",verdana,arial,sans-serif;font-size:16px;}#mermaid-1619603690306 .entityBox{fill:#ECECFF;stroke:#9370DB;}#mermaid-1619603690306 .attributeBoxOdd{fill:#ffffff;stroke:#9370DB;}#mermaid-1619603690306 .attributeBoxEven{fill:#f2f2f2;stroke:#9370DB;}#mermaid-1619603690306 .relationshipLabelBox{fill:hsl(80,100%,96.2745098039%);opacity:0.7;background-color:hsl(80,100%,96.2745098039%);}#mermaid-1619603690306 .relationshipLabelBox rect{opacity:0.5;}#mermaid-1619603690306 .relationshipLine{stroke:#333333;}#mermaid-1619603690306:root{--mermaid-font-family:"trebuchet ms",verdana,arial,sans-serif;}#mermaid-1619603690306 er{fill:apa;}</style><g></g><defs><marker id="ONLY_ONE_START" refX="0" refY="9" markerWidth="18" markerHeight="18" orient="auto"><path stroke="gray" fill="none" d="M9,0 L9,18 M15,0 L15,18"></path></marker></defs><defs><marker id="ONLY_ONE_END" refX="18" refY="9" markerWidth="18" markerHeight="18" orient="auto"><path stroke="gray" fill="none" d="M3,0 L3,18 M9,0 L9,18"></path></marker></defs><defs><marker id="ZERO_OR_ONE_START" refX="0" refY="9" markerWidth="30" markerHeight="18" orient="auto"><circle stroke="gray" fill="white" cx="21" cy="9" r="6"></circle><path stroke="gray" fill="none" d="M9,0 L9,18"></path></marker></defs><defs><marker id="ZERO_OR_ONE_END" refX="30" refY="9" markerWidth="30" markerHeight="18" orient="auto"><circle stroke="gray" fill="white" cx="9" cy="9" r="6"></circle><path stroke="gray" fill="none" d="M21,0 L21,18"></path></marker></defs><defs><marker id="ONE_OR_MORE_START" refX="18" refY="18" markerWidth="45" markerHeight="36" orient="auto"><path stroke="gray" fill="none" d="M0,18 Q 18,0 36,18 Q 18,36 0,18 M42,9 L42,27"></path></marker></defs><defs><marker id="ONE_OR_MORE_END" refX="27" refY="18" markerWidth="45" markerHeight="36" orient="auto"><path stroke="gray" fill="none" d="M3,9 L3,27 M9,18 Q27,0 45,18 Q27,36 9,18"></path></marker></defs><defs><marker id="ZERO_OR_MORE_START" refX="18" refY="18" markerWidth="57" markerHeight="36" orient="auto"><circle stroke="gray" fill="white" cx="48" cy="18" r="6"></circle><path stroke="gray" fill="none" d="M0,18 Q18,0 36,18 Q18,36 0,18"></path></marker></defs><defs><marker id="ZERO_OR_MORE_END" refX="39" refY="18" markerWidth="57" markerHeight="36" orient="auto"><circle stroke="gray" fill="white" cx="9" cy="18" r="6"></circle><path stroke="gray" fill="none" d="M21,18 Q39,0 57,18 Q39,36 21,18"></path></marker></defs><path class="er relationshipLine" d="M72.3046875,95L72.3046875,103.33333333333333C72.3046875,111.66666666666667,72.3046875,128.33333333333334,81.93824404761905,145C91.57180059523809,161.66666666666666,110.83891369047619,178.33333333333334,120.47247023809523,186.66666666666666L130.10602678571428,195" stroke="gray" fill="none" marker-end="url(#ONE_OR_MORE_END)" marker-start="url(#ONLY_ONE_START)"></path><path class="er relationshipLine" d="M274.609375,95L274.609375,103.33333333333333C274.609375,111.66666666666667,274.609375,128.33333333333334,264.97581845238096,145C255.34226190476193,161.66666666666666,236.07514880952382,178.33333333333334,226.4415922619048,186.66666666666666L216.80803571428572,195" stroke="gray" fill="none" marker-end="url(#ONE_OR_MORE_END)" marker-start="url(#ONLY_ONE_START)"></path><path class="er relationshipLine" d="M173.45703125,270L173.45703125,278.3333333333333C173.45703125,286.6666666666667,173.45703125,303.3333333333333,173.45703125,320C173.45703125,336.6666666666667,173.45703125,353.3333333333333,173.45703125,361.6666666666667L173.45703125,370" stroke="gray" fill="none" marker-end="url(#ONE_OR_MORE_END)" marker-start="url(#ONLY_ONE_START)"></path><g id="Conversations" transform="translate(20,20 )"><rect class="er entityBox" fill="honeydew" fill-opacity="100%" stroke="gray" x="0" y="0" width="104.609375" height="75"></rect><text class="er entityLabel" id="entity-Conversations" x="0" y="0" dominant-baseline="middle" text-anchor="middle" style="font-family: &quot;trebuchet ms&quot;, verdana, arial, sans-serif;; font-size: 12px" transform="translate(52.3046875,37.5)">Conversations</text></g><g id="Participants" transform="translate(123.45703125,195 )"><rect class="er entityBox" fill="honeydew" fill-opacity="100%" stroke="gray" x="0" y="0" width="100" height="75"></rect><text class="er entityLabel" id="entity-Participants" x="0" y="0" dominant-baseline="middle" text-anchor="middle" style="font-family: &quot;trebuchet ms&quot;, verdana, arial, sans-serif;; font-size: 12px" transform="translate(50,37.5)">Participants</text></g><g id="Users" transform="translate(224.609375,20 )"><rect class="er entityBox" fill="honeydew" fill-opacity="100%" stroke="gray" x="0" y="0" width="100" height="75"></rect><text class="er entityLabel" id="entity-Users" x="0" y="0" dominant-baseline="middle" text-anchor="middle" style="font-family: &quot;trebuchet ms&quot;, verdana, arial, sans-serif;; font-size: 12px" transform="translate(50,37.5)">Users</text></g><g id="Messages" transform="translate(123.45703125,370 )"><rect class="er entityBox" fill="honeydew" fill-opacity="100%" stroke="gray" x="0" y="0" width="100" height="75"></rect><text class="er entityLabel" id="entity-Messages" x="0" y="0" dominant-baseline="middle" text-anchor="middle" style="font-family: &quot;trebuchet ms&quot;, verdana, arial, sans-serif;; font-size: 12px" transform="translate(50,37.5)">Messages</text></g><rect class="er relationshipLabelBox" x="77.97894287109375" y="145.5424041748047" width="17.875" height="14.015625" fill="white" fill-opacity="85%"></rect><text class="er relationshipLabel" id="rel1" x="86.91644287109375" y="152.5502166748047" text-anchor="middle" dominant-baseline="middle" style="font-family: &quot;trebuchet ms&quot;, verdana, arial, sans-serif;; font-size: 12px">has</text><rect class="er relationshipLabelBox" x="251.06015014648438" y="145.5424041748047" width="17.875" height="14.015625" fill="white" fill-opacity="85%"></rect><text class="er relationshipLabel" id="rel2" x="259.9976501464844" y="152.5502166748047" text-anchor="middle" dominant-baseline="middle" style="font-family: &quot;trebuchet ms&quot;, verdana, arial, sans-serif;; font-size: 12px">has</text><rect class="er relationshipLabelBox" x="164.51953125" y="312.9921875" width="17.875" height="14.015625" fill="white" fill-opacity="85%"></rect><text class="er relationshipLabel" id="rel3" x="173.45703125" y="320" text-anchor="middle" dominant-baseline="middle" style="font-family: &quot;trebuchet ms&quot;, verdana, arial, sans-serif;; font-size: 12px">has</text></svg>